<svg xmlns="http://www.w3.org/2000/svg" viewBox="0 0 320 640" role="img" aria-labelledby="title">
  <title id="title">Silhouette du corps humain</title>
  <defs>
    <linearGradient id="skin" x1="0" y1="0" x2="0" y2="1">
      <stop offset="0%" stop-color="#f8d6c3" />
      <stop offset="100%" stop-color="#f3b79d" />
    </linearGradient>
    <linearGradient id="shadow" x1="0" y1="0" x2="1" y2="1">
      <stop offset="0%" stop-color="#000000" stop-opacity="0.12" />
      <stop offset="100%" stop-color="#000000" stop-opacity="0" />
    </linearGradient>
  </defs>
  <g fill="none" fill-rule="evenodd">
    <path
      fill="url(#skin)"
      d="M160 12c-24 0-44 20-44 44v32c0 11-4 22-12 30l-32 32c-9 9-14 22-14 35v44c0 13-5 26-14 35l-14 14c-8 8-11 20-8 31l24 110c2 10 11 17 21 17h14v116l-30 72c-4 10 3 21 14 21h70l-6-130 14-76h18l14 76-6 130h70c11 0 18-11 14-21l-30-72V396h14c10 0 19-7 21-17l24-110c3-11 0-23-8-31l-14-14c-9-9-14-22-14-35v-44c0-13-5-26-14-35l-32-32c-8-8-12-19-12-30V56c0-24-20-44-44-44z" />
    <path
      fill="url(#shadow)"
      d="M160 12c-24 0-44 20-44 44v32c0 11-4 22-12 30l-32 32c-9 9-14 22-14 35v44c0 13-5 26-14 35l-14 14c-8 8-11 20-8 31l24 110c2 10 11 17 21 17h14v40c64-16 128-16 192 0v-40h14c10 0 19-7 21-17l24-110c3-11 0-23-8-31l-14-14c-9-9-14-22-14-35v-44c0-13-5-26-14-35l-32-32c-8-8-12-19-12-30V56c0-24-20-44-44-44z"
      opacity="0.35" />
    <path
      fill="#fce8dd"
      d="M160 12c-24 0-44 20-44 44v28c18 6 36 9 44 9s26-3 44-9V56c0-24-20-44-44-44z"
      opacity="0.7" />
    <circle cx="160" cy="52" r="44" fill="#f9dcc7" opacity="0.5" />
  </g>
</svg>
